<?xml version="1.0" standalone="no"?>
<!DOCTYPE svg PUBLIC "-//W3C//DTD SVG 20010904//EN"
 "http://www.w3.org/TR/2001/REC-SVG-20010904/DTD/svg10.dtd">
<svg version="1.0" xmlns="http://www.w3.org/2000/svg"
 width="512.000000pt" height="512.000000pt" viewBox="0 0 512.000000 512.000000"
 preserveAspectRatio="xMidYMid meet">
<metadata>
Created by potrace 1.14, written by Peter Selinger 2001-2017
</metadata>
<g transform="translate(0.000000,512.000000) scale(0.100000,-0.100000)"
fill="#000000" stroke="none">
<path d="M0 2560 l0 -2560 2560 0 2560 0 0 2560 0 2560 -2560 0 -2560 0 0
-2560z m3423 1696 c18 -8 116 -99 219 -202 260 -264 260 -258 28 -489 l-150
-150 -268 268 -267 268 151 149 c83 82 162 154 175 159 35 14 75 13 112 -3z
m-306 -718 l263 -263 -712 -712 -713 -713 -267 0 -268 0 0 267 0 268 707 707
c390 390 712 708 718 708 5 0 128 -118 272 -262z m1153 -2403 l0 -285 -1710 0
-1710 0 0 285 0 285 1710 0 1710 0 0 -285z"/>
</g>
</svg>
